<?xml version="1.0" standalone="no"?>
<!DOCTYPE svg PUBLIC "-//W3C//DTD SVG 20010904//EN"
 "http://www.w3.org/TR/2001/REC-SVG-20010904/DTD/svg10.dtd">
<svg version="1.0" xmlns="http://www.w3.org/2000/svg"
 width="512.000000pt" height="512.000000pt" viewBox="0 0 512.000000 512.000000"
 preserveAspectRatio="xMidYMid meet">

<g transform="translate(0.000000,512.000000) scale(0.100000,-0.100000)"
fill="#000000" stroke="none">
<path d="M345 5106 c-84 -21 -147 -57 -211 -121 -65 -65 -105 -136 -123 -223
-16 -76 -16 -4329 0 -4404 37 -172 175 -310 347 -347 75 -16 4328 -16 4404 0
170 36 311 178 347 347 16 76 16 4329 0 4404 -37 172 -176 311 -347 347 -81
17 -4349 14 -4417 -3z m1763 -1212 c279 -58 502 -268 579 -548 23 -84 23 -288
0 -372 -77 -280 -300 -490 -579 -548 -63 -13 -151 -16 -488 -16 l-410 0 0
-540 c0 -522 -1 -542 -20 -580 -23 -45 -80 -80 -131 -80 -46 0 -108 39 -130
82 -18 36 -19 79 -19 1268 0 1213 0 1231 20 1270 12 24 35 47 58 59 35 19 59
20 540 21 422 0 515 -3 580 -16z m2022 -4 c45 -23 80 -80 80 -130 0 -50 -35
-107 -80 -130 -35 -18 -59 -20 -220 -20 -210 0 -244 -10 -280 -80 -18 -36 -20
-58 -20 -280 l0 -240 240 0 c222 0 244 -2 280 -20 45 -23 80 -80 80 -130 0
-50 -35 -107 -80 -130 -36 -18 -58 -20 -280 -20 l-240 0 0 -690 c0 -673 -1
-692 -20 -730 -23 -45 -80 -80 -131 -80 -46 0 -108 39 -130 82 -18 35 -19 69
-19 728 l0 690 -90 0 c-71 0 -99 4 -130 20 -45 23 -80 80 -80 130 0 50 35 107
80 130 31 16 59 20 130 20 l90 0 0 245 c0 261 7 315 48 405 33 69 130 168 197
200 87 41 139 48 343 49 174 1 197 -1 232 -19z"/>
<path d="M1210 3160 l0 -450 395 0 c252 0 413 4 447 11 179 38 318 184 350
368 40 232 -117 461 -350 510 -34 7 -196 11 -447 11 l-395 0 0 -450z"/>
</g>
</svg>
