<?xml version="1.0" standalone="no"?>
<!DOCTYPE svg PUBLIC "-//W3C//DTD SVG 20010904//EN"
 "http://www.w3.org/TR/2001/REC-SVG-20010904/DTD/svg10.dtd">
<svg version="1.0" xmlns="http://www.w3.org/2000/svg"
 width="512.000000pt" height="512.000000pt" viewBox="0 0 512.000000 512.000000"
 preserveAspectRatio="xMidYMid meet">

<g transform="translate(0.000000,512.000000) scale(0.100000,-0.100000)"
fill="#000000" stroke="none">
<path d="M880 4788 c-79 -11 -188 -47 -255 -84 -79 -44 -184 -157 -227 -244
-72 -146 -68 -18 -68 -1900 0 -1893 -5 -1755 73 -1904 80 -156 215 -259 397
-305 72 -18 145 -19 1760 -23 1593 -3 1689 -2 1755 15 223 57 375 194 453 409
l27 73 3 1690 c3 1846 5 1762 -54 1909 -77 192 -267 335 -487 365 -99 14
-3280 13 -3377 -1z m1617 -656 c57 -41 63 -67 63 -300 0 -200 -1 -210 -23
-242 -66 -99 -208 -99 -275 0 -23 34 -23 39 -20 255 3 209 4 222 25 251 12 17
37 39 55 48 46 23 134 17 175 -12z m-1039 -411 c47 -24 287 -267 301 -304 28
-73 3 -161 -58 -203 -42 -28 -125 -33 -169 -10 -40 22 -289 277 -302 309 -53
144 93 277 228 208z m2050 -8 c67 -50 93 -144 58 -211 -17 -32 -272 -285 -303
-301 -31 -16 -109 -14 -142 4 -66 34 -100 106 -86 183 6 30 32 62 148 181 78
79 156 150 172 157 40 19 119 12 153 -13z m-908 -374 c270 -68 500 -290 575
-554 l16 -60 67 -3 c184 -8 373 -93 510 -230 141 -141 220 -314 237 -522 l7
-85 61 -29 c167 -78 274 -286 247 -477 -28 -193 -145 -334 -332 -401 -59 -21
-82 -22 -393 -25 -181 -2 -629 0 -995 5 l-665 9 -95 31 c-354 117 -580 447
-557 812 8 116 27 190 76 295 46 97 113 187 189 255 l57 51 -3 117 c-9 295
115 539 352 696 199 132 419 171 646 115z m-1232 -639 c48 -30 72 -75 72 -140
0 -65 -24 -110 -72 -140 -30 -18 -51 -20 -246 -20 -171 0 -219 3 -242 15 -104
54 -108 224 -8 285 30 18 51 20 248 20 197 0 218 -2 248 -20z"/>
</g>
</svg>
