<svg id="visual" viewBox="0 0 900 600" width="900" height="600" xmlns="http://www.w3.org/2000/svg" xmlns:xlink="http://www.w3.org/1999/xlink" version="1.1"><g stroke-width="1" stroke-linejoin="bevel"><path d="M438 318L355.5 308L437 410Z" fill="#071931" stroke="#071931"></path><path d="M355.5 308L318.5 372L437 410Z" fill="#001122" stroke="#001122"></path><path d="M318.5 372L315.5 487L437 410Z" fill="#001122" stroke="#001122"></path><path d="M253 269L251 405L318.5 372Z" fill="#071931" stroke="#071931"></path><path d="M318.5 372L251 405L315.5 487Z" fill="#af256e" stroke="#af256e"></path><path d="M315.5 487L475 489L437 410Z" fill="#141f40" stroke="#141f40"></path><path d="M437 410L576.5 370L438 318Z" fill="#25254e" stroke="#25254e"></path><path d="M360.5 183L253 269L355.5 308Z" fill="#39295a" stroke="#39295a"></path><path d="M355.5 308L253 269L318.5 372Z" fill="#071931" stroke="#071931"></path><path d="M571.5 315L470 215L438 318Z" fill="#25254e" stroke="#25254e"></path><path d="M438 318L470 215L355.5 308Z" fill="#982870" stroke="#982870"></path><path d="M470 215L360.5 183L355.5 308Z" fill="#982870" stroke="#982870"></path><path d="M475 489L576.5 370L437 410Z" fill="#c62368" stroke="#c62368"></path><path d="M576.5 370L571.5 315L438 318Z" fill="#39295a" stroke="#39295a"></path><path d="M251 405L240 527L315.5 487Z" fill="#af256e" stroke="#af256e"></path><path d="M315.5 487L451 600L475 489Z" fill="#672c6b" stroke="#672c6b"></path><path d="M124.5 412L240 527L251 405Z" fill="#25254e" stroke="#25254e"></path><path d="M451 600L551.5 525L475 489Z" fill="#4f2b64" stroke="#4f2b64"></path><path d="M475 489L551.5 525L576.5 370Z" fill="#7f2a6f" stroke="#7f2a6f"></path><path d="M316.5 600L451 600L315.5 487Z" fill="#141f40" stroke="#141f40"></path><path d="M240 527L316.5 600L315.5 487Z" fill="#7f2a6f" stroke="#7f2a6f"></path><path d="M360.5 183L196 210L253 269Z" fill="#141f40" stroke="#141f40"></path><path d="M253 269L145.5 291L251 405Z" fill="#001122" stroke="#001122"></path><path d="M571.5 315L557.5 177L470 215Z" fill="#25254e" stroke="#25254e"></path><path d="M456 105L360.5 114L360.5 183Z" fill="#141f40" stroke="#141f40"></path><path d="M456 105L360.5 183L470 215Z" fill="#672c6b" stroke="#672c6b"></path><path d="M360.5 183L223 91L196 210Z" fill="#071931" stroke="#071931"></path><path d="M196 210L145.5 291L253 269Z" fill="#141f40" stroke="#141f40"></path><path d="M532.5 113L456 105L470 215Z" fill="#af256e" stroke="#af256e"></path><path d="M145.5 291L124.5 412L251 405Z" fill="#25254e" stroke="#25254e"></path><path d="M117.5 600L234 600L240 527Z" fill="#141f40" stroke="#141f40"></path><path d="M240 527L234 600L316.5 600Z" fill="#982870" stroke="#982870"></path><path d="M557.5 177L532.5 113L470 215Z" fill="#672c6b" stroke="#672c6b"></path><path d="M451 600L556.5 600L551.5 525Z" fill="#7f2a6f" stroke="#7f2a6f"></path><path d="M679 422L674 303L576.5 370Z" fill="#982870" stroke="#982870"></path><path d="M576.5 370L674 303L571.5 315Z" fill="#7f2a6f" stroke="#7f2a6f"></path><path d="M571.5 315L674 303L557.5 177Z" fill="#672c6b" stroke="#672c6b"></path><path d="M557.5 177L657 95L532.5 113Z" fill="#af256e" stroke="#af256e"></path><path d="M679 422L576.5 370L669 497Z" fill="#071931" stroke="#071931"></path><path d="M669 497L576.5 370L551.5 525Z" fill="#af256e" stroke="#af256e"></path><path d="M196 210L122.5 216L145.5 291Z" fill="#c62368" stroke="#c62368"></path><path d="M0 284L0 431L124.5 412Z" fill="#25254e" stroke="#25254e"></path><path d="M130.5 70L122.5 216L196 210Z" fill="#39295a" stroke="#39295a"></path><path d="M0 431L100.5 467L124.5 412Z" fill="#4f2b64" stroke="#4f2b64"></path><path d="M124.5 412L100.5 467L240 527Z" fill="#071931" stroke="#071931"></path><path d="M556.5 600L669 497L551.5 525Z" fill="#c62368" stroke="#c62368"></path><path d="M303.5 0L223 91L360.5 114Z" fill="#39295a" stroke="#39295a"></path><path d="M360.5 114L223 91L360.5 183Z" fill="#982870" stroke="#982870"></path><path d="M811.5 312L706 222L674 303Z" fill="#c62368" stroke="#c62368"></path><path d="M674 303L706 222L557.5 177Z" fill="#672c6b" stroke="#672c6b"></path><path d="M754.5 399L674 303L679 422Z" fill="#39295a" stroke="#39295a"></path><path d="M100.5 467L117.5 600L240 527Z" fill="#39295a" stroke="#39295a"></path><path d="M669 497L754.5 399L679 422Z" fill="#25254e" stroke="#25254e"></path><path d="M532.5 113L473 0L456 105Z" fill="#001122" stroke="#001122"></path><path d="M456 105L473 0L360.5 114Z" fill="#4f2b64" stroke="#4f2b64"></path><path d="M531.5 0L473 0L532.5 113Z" fill="#7f2a6f" stroke="#7f2a6f"></path><path d="M473 0L303.5 0L360.5 114Z" fill="#672c6b" stroke="#672c6b"></path><path d="M706 222L657 95L557.5 177Z" fill="#071931" stroke="#071931"></path><path d="M556.5 600L692 600L669 497Z" fill="#141f40" stroke="#141f40"></path><path d="M669 497L819.5 467L754.5 399Z" fill="#001122" stroke="#001122"></path><path d="M657 95L531.5 0L532.5 113Z" fill="#071931" stroke="#071931"></path><path d="M206 0L130.5 70L223 91Z" fill="#7f2a6f" stroke="#7f2a6f"></path><path d="M223 91L130.5 70L196 210Z" fill="#982870" stroke="#982870"></path><path d="M0 284L124.5 412L145.5 291Z" fill="#c62368" stroke="#c62368"></path><path d="M0 284L145.5 291L122.5 216Z" fill="#672c6b" stroke="#672c6b"></path><path d="M100.5 467L0 502L117.5 600Z" fill="#4f2b64" stroke="#4f2b64"></path><path d="M0 177L0 284L122.5 216Z" fill="#af256e" stroke="#af256e"></path><path d="M303.5 0L206 0L223 91Z" fill="#39295a" stroke="#39295a"></path><path d="M0 431L0 502L100.5 467Z" fill="#001122" stroke="#001122"></path><path d="M754.5 399L811.5 312L674 303Z" fill="#39295a" stroke="#39295a"></path><path d="M706 222L820.5 87L657 95Z" fill="#c62368" stroke="#c62368"></path><path d="M900 432L811.5 312L754.5 399Z" fill="#4f2b64" stroke="#4f2b64"></path><path d="M0 110L0 177L122.5 216Z" fill="#39295a" stroke="#39295a"></path><path d="M0 110L122.5 216L130.5 70Z" fill="#001122" stroke="#001122"></path><path d="M764.5 600L819.5 467L669 497Z" fill="#39295a" stroke="#39295a"></path><path d="M692 600L764.5 600L669 497Z" fill="#001122" stroke="#001122"></path><path d="M900 332L815.5 218L811.5 312Z" fill="#672c6b" stroke="#672c6b"></path><path d="M811.5 312L815.5 218L706 222Z" fill="#672c6b" stroke="#672c6b"></path><path d="M0 502L0 600L117.5 600Z" fill="#071931" stroke="#071931"></path><path d="M753.5 0L668 0L657 95Z" fill="#001122" stroke="#001122"></path><path d="M657 95L668 0L531.5 0Z" fill="#001122" stroke="#001122"></path><path d="M80.5 0L0 110L130.5 70Z" fill="#982870" stroke="#982870"></path><path d="M206 0L80.5 0L130.5 70Z" fill="#af256e" stroke="#af256e"></path><path d="M900 432L900 332L811.5 312Z" fill="#7f2a6f" stroke="#7f2a6f"></path><path d="M815.5 218L820.5 87L706 222Z" fill="#7f2a6f" stroke="#7f2a6f"></path><path d="M900 432L754.5 399L819.5 467Z" fill="#071931" stroke="#071931"></path><path d="M900 196L820.5 87L815.5 218Z" fill="#982870" stroke="#982870"></path><path d="M820.5 87L753.5 0L657 95Z" fill="#7f2a6f" stroke="#7f2a6f"></path><path d="M900 521L900 432L819.5 467Z" fill="#39295a" stroke="#39295a"></path><path d="M764.5 600L900 521L819.5 467Z" fill="#141f40" stroke="#141f40"></path><path d="M80.5 0L0 0L0 110Z" fill="#982870" stroke="#982870"></path><path d="M900 332L900 196L815.5 218Z" fill="#c62368" stroke="#c62368"></path><path d="M764.5 600L900 600L900 521Z" fill="#001122" stroke="#001122"></path><path d="M900 196L900 108L820.5 87Z" fill="#001122" stroke="#001122"></path><path d="M820.5 87L900 0L753.5 0Z" fill="#4f2b64" stroke="#4f2b64"></path><path d="M900 108L900 0L820.5 87Z" fill="#982870" stroke="#982870"></path></g></svg>