<?xml version="1.0" standalone="no"?>
<!DOCTYPE svg PUBLIC "-//W3C//DTD SVG 20010904//EN"
 "http://www.w3.org/TR/2001/REC-SVG-20010904/DTD/svg10.dtd">
<svg version="1.0" xmlns="http://www.w3.org/2000/svg"
 width="180.000000pt" height="180.000000pt" viewBox="0 0 180.000000 180.000000"
 preserveAspectRatio="xMidYMid meet">

<g transform="translate(0.000000,180.000000) scale(0.100000,-0.100000)"
fill="#000000" stroke="none">
<path d="M805 1790 c-306 -32 -569 -218 -710 -499 -117 -234 -117 -548 0 -782
122 -242 326 -409 584 -476 136 -35 306 -35 442 0 258 67 462 234 584 476 117
234 117 548 0 782 -121 241 -329 411 -579 474 -106 26 -223 35 -321 25z m-235
-658 c28 -23 28 -67 1 -171 -11 -41 -18 -78 -15 -83 7 -11 35 -10 71 2 28 10
30 15 46 108 10 53 17 109 17 124 0 34 42 50 67 25 15 -14 14 -30 -11 -174
-15 -87 -29 -165 -31 -173 -4 -12 27 -20 168 -43 200 -32 281 -34 357 -7 62
21 83 13 78 -29 -5 -40 -57 -64 -152 -69 -65 -3 -115 3 -256 32 -96 20 -181
36 -190 36 -9 0 -22 -19 -32 -48 -25 -69 -68 -107 -123 -107 -59 0 -85 25 -85
81 0 56 46 108 113 126 32 8 47 17 47 29 0 15 -4 15 -37 3 -53 -19 -76 -17
-107 7 -32 26 -33 46 -1 169 13 52 22 97 19 99 -3 3 -18 -2 -35 -11 -29 -17
-29 -17 -44 11 -13 26 -13 30 3 44 42 38 99 46 132 19z m278 -109 c6 -11 5
-42 -1 -79 -11 -67 -6 -97 17 -88 20 8 25 24 32 105 6 63 9 70 31 75 16 4 30
1 39 -8 13 -13 13 -25 0 -104 -9 -49 -16 -101 -16 -115 l0 -27 -85 0 c-93 1
-106 8 -107 55 -1 48 25 188 36 195 19 13 45 9 54 -9z m226 8 c4 -5 20 -5 41
2 25 7 42 7 60 -1 18 -8 32 -9 45 -2 33 18 68 12 86 -16 15 -22 16 -33 4 -97
-7 -40 -14 -85 -15 -102 -2 -26 -7 -30 -34 -33 -41 -4 -46 11 -33 101 6 39 8
75 4 79 -18 18 -35 -16 -46 -93 l-12 -84 -35 0 c-33 0 -34 1 -34 40 1 22 4 64
9 93 4 28 4 52 -1 52 -24 -1 -35 -25 -46 -103 l-11 -87 -33 0 c-17 0 -35 5
-39 11 -9 15 27 232 41 241 14 11 43 10 49 -1z"/>
<path d="M582 684 c-25 -17 -30 -54 -8 -54 16 0 46 37 46 57 0 17 -11 16 -38
-3z"/>
</g>
</svg>
